<?xml version="1.0" encoding="iso-8859-1"?>
<!-- Generator: Adobe Illustrator 18.1.1, SVG Export Plug-In . SVG Version: 6.00 Build 0)  -->
<svg version="1.1" id="Capa_1" xmlns="http://www.w3.org/2000/svg" xmlns:xlink="http://www.w3.org/1999/xlink" x="0px" y="0px"
	 viewBox="0 0 55.624 55.624" style="enable-background:new 0 0 55.624 55.624;" xml:space="preserve">
<g>
	<g>
		<path style="fill:#010002;" d="M23.2,10.195c1.423,1.212,4.678,0.395,7.274-1.826c2.598-2.22,3.547-5.003,2.125-6.214
			c-0.658-0.563-1.714-0.684-2.912-0.437c-0.467-0.45-1.205-0.665-1.929-0.491L25.32,1.81c-1.009,0.242-1.599,1.136-1.316,1.999
			l0.36,1.099C22.518,6.926,21.97,9.148,23.2,10.195z M28.875,6.979c1.825-0.703,2.817-2.23,2.323-3.496
			c0.041,0.062,0.082,0.122,0.117,0.188c0.687,1.3-0.314,2.955-2.237,3.694c-1.923,0.741-4.039,0.287-4.725-1.013
			c-0.034-0.065-0.061-0.132-0.087-0.198C25.051,7.306,27.05,7.683,28.875,6.979z"/>
		<rect x="27.696" y="11.963" style="fill:#010002;" width="1.209" height="0.838"/>
		<polygon style="fill:#010002;" points="28.953,25.354 28.953,13.641 27.745,13.641 27.745,25.354 28.331,27.238 		"/>
		<path style="fill:#010002;" d="M20.015,49.794c-2.128,2.084,1.136,5.346,3.265,3.263c1.75-1.714,3.16-3.64,4.349-5.692
			c-0.85-1.674-1.827-3.609-2.127-5.447C24.232,44.675,22.236,47.623,20.015,49.794z"/>
		<path style="fill:#010002;" d="M28.632,34.75c2.051,3.983,1.591,3.484,2.605,4.948c1.278-2.987,2.129-6.872,2.316-10.256
			c0.087-0.269,0.059-0.487-0.062-0.669c0.082-0.126,0.137-0.296,0.137-0.561v-8.884L44.124,2.334
			c-0.948-2.549-3.247-2.329-3.247-2.329c-2.13,3.262-6.082,9.156-8.646,12.045c-0.279-0.119-0.586-0.186-0.908-0.186h-0.385
			l-1.076,2.581v13.617c-0.939,0.031-1.955,0.122-2.922,0.237V14.598l-1.23-2.733h-1.23c-0.223,0-0.432,0.041-0.634,0.099
			C21.129,9.238,16.9,4.545,14.815,1.353c0,0-3.877-1.076-3.247,1.96c0.879,1.19,6.642,10.063,10.604,15.138v9.761
			c0,0.208,0.037,0.354,0.089,0.473c0.013,0.341,0.127,1.141,0.457,2.832c0.456,4.156,5.318,15.421,5.335,15.391
			c1.162,2.614,2.468,5.165,3.974,7.62c1.549,2.533,5.541,0.218,3.983-2.327C33.875,48.712,29.402,37.595,28.632,34.75z
			 M22.553,28.986c0,0-0.001-0.002-0.001-0.003c0.001,0.001,0.002,0.002,0.003,0.003H22.553z"/>
	</g>
</g>
<g>
</g>
<g>
</g>
<g>
</g>
<g>
</g>
<g>
</g>
<g>
</g>
<g>
</g>
<g>
</g>
<g>
</g>
<g>
</g>
<g>
</g>
<g>
</g>
<g>
</g>
<g>
</g>
<g>
</g>
</svg>
