<?xml version="1.0" encoding="iso-8859-1"?>
<!-- Generator: Adobe Illustrator 17.1.0, SVG Export Plug-In . SVG Version: 6.00 Build 0)  -->
<!DOCTYPE svg PUBLIC "-//W3C//DTD SVG 1.1//EN" "http://www.w3.org/Graphics/SVG/1.1/DTD/svg11.dtd">
<svg version="1.1" id="Capa_1" xmlns="http://www.w3.org/2000/svg" xmlns:xlink="http://www.w3.org/1999/xlink" x="0px" y="0px"
	 viewBox="0 0 415.484 415.484" style="enable-background:new 0 0 415.484 415.484;" xml:space="preserve">
<path d="M247.276,240.448L380.6,91.098c10.8-12.099,7.816-22.672,6.032-26.657c-1.785-3.984-7.686-13.252-23.903-13.252H147.354
	C142.863,22.234,117.767,0,87.574,0C54.216,0,27.077,27.139,27.077,60.497s27.139,60.497,60.497,60.497
	c1.096,0,2.27-0.037,3.587-0.114l0.342-0.02l106.755,119.588c0.857,0.96,1.764,1.859,2.71,2.705v80.999
	c0,9.323-6.717,21.311-14.668,26.177l-74.251,45.45c-6.812,4.169-9.629,8.541-8.375,12.994c1.254,4.453,5.94,6.711,13.927,6.711
	h210.332c7.987,0,12.672-2.258,13.927-6.711c1.254-4.453-1.563-8.825-8.375-12.994l-74.251-45.45
	c-7.951-4.866-14.668-16.854-14.668-26.177v-80.999C245.512,242.307,246.42,241.408,247.276,240.448z M117.108,104.493
	L96.304,81.188h252.927l-20.804,23.305H117.108z M222.767,167.742c0-12.98,10.523-23.503,23.503-23.503
	c12.98,0,23.503,10.523,23.503,23.503s-10.523,23.503-23.503,23.503C233.29,191.245,222.767,180.723,222.767,167.742z"/>
<g>
</g>
<g>
</g>
<g>
</g>
<g>
</g>
<g>
</g>
<g>
</g>
<g>
</g>
<g>
</g>
<g>
</g>
<g>
</g>
<g>
</g>
<g>
</g>
<g>
</g>
<g>
</g>
<g>
</g>
</svg>
