<svg height="511pt" viewBox="0 -20 511.99987 511" width="511pt" xmlns="http://www.w3.org/2000/svg"><path d="m241.4375 163.726562 10.152344-27.015624c2.867187-7.625-.878906-16.148438-8.441406-19.191407l-79.492188-32c-7.214844-2.90625-15.453125.183594-18.976562 7.117188l-36.117188 71.089843zm0 0"/><path d="m93.320312 193.726562-15.722656 30.945313c-9.808594 18.777344-16.589844 65.609375-10.648437 98.039063 1.652343 9.015624 6.246093 17.058593 12.929687 23.152343l-33.367187 75.171875-25.90625-10.429687c-7.683594-3.097657-16.421875.625-19.515625 8.3125-3.09375 7.683593.628906 16.421875 8.3125 19.515625l79.496094 32c1.835937.738281 3.730468 1.089844 5.597656 1.089844 5.9375 0 11.5625-3.554688 13.917968-9.402344 3.09375-7.683594-.628906-16.421875-8.3125-19.515625l-25.746093-10.363281 33.230469-74.855469c.808593.046875 1.621093.074219 2.433593.074219 8.472657 0 16.847657-2.410157 24.054688-7.125 28.265625-18.5 58.425781-55.714844 65.601562-75.484376l30.488281-81.125zm0 0"/><path d="m403.703125 163.726562-35.382813-69.636718c-3.519531-6.933594-11.757812-10.023438-18.972656-7.121094l-79.496094 32c-7.558593 3.042969-11.308593 11.566406-8.441406 19.191406l9.609375 25.566406zm0 0"/><path d="m510.910156 419.394531c-3.09375-7.6875-11.828125-11.410156-19.515625-8.3125l-23.144531 9.316407-33.023438-75.132813c5.546876-5.800781 9.351563-13.066406 10.824219-21.105469 5.941407-32.425781-.839843-79.261718-10.648437-98.039062l-16.457032-32.394532h-136.652343l31.03125 82.574219c7.179687 19.769531 37.339843 56.988281 65.605469 75.484375 7.207031 4.71875 15.578124 7.125 24.054687 7.125 1.773437 0 3.554687-.117187 5.328125-.328125l32.097656 73.023438-28.507812 11.476562c-7.6875 3.09375-11.40625 11.832031-8.3125 19.515625 2.351562 5.851563 7.976562 9.402344 13.917968 9.402344 1.863282 0 3.761719-.347656 5.597657-1.089844l79.496093-32c7.679688-3.09375 11.402344-11.832031 8.308594-19.515625zm0 0"/><path d="m269.984375 15.191406c0 8.113282-6.578125 14.691406-14.691406 14.691406s-14.691407-6.578124-14.691407-14.691406c0-8.113281 6.578126-14.691406 14.691407-14.691406s14.691406 6.578125 14.691406 14.691406zm0 0"/><path d="m308.484375 53.695312c0 8.113282-6.574219 14.691407-14.6875 14.691407s-14.691406-6.578125-14.691406-14.691407c0-8.113281 6.578125-14.691406 14.691406-14.691406s14.6875 6.578125 14.6875 14.691406zm0 0"/><path d="m232.894531 52.277344c0 8.113281-6.578125 14.691406-14.691406 14.691406s-14.6875-6.578125-14.6875-14.691406c0-8.113282 6.574219-14.691406 14.6875-14.691406s14.691406 6.578124 14.691406 14.691406zm0 0"/></svg>