<svg id="Layer_33" enable-background="new 0 0 64 64" height="512" viewBox="0 0 64 64" width="512" xmlns="http://www.w3.org/2000/svg"><path d="m20 54c0 .552.449 1 1 1h31v-2h-32z"/><circle cx="35" cy="45" r="1"/><path d="m25 13h14v2h-14z"/><path d="m27 17h10v3h-10z"/><path d="m18 54v-18c0-1.654 1.346-3 3-3h13.486l3-2h14.029c-.406-.86-1.058-1.653-1.962-2.105l-11.823-6.895h-11.46l-11.766 6.864c-1.663.834-2.504 2.704-2.504 4.136v25c0 1.654 1.346 3 3 3h34c1.654 0 3-1.346 3-3v-1h-31c-1.654 0-3-1.346-3-3z"/><path d="m39 4c0-.551-.449-1-1-1h-12c-.551 0-1 .449-1 1v1h14z"/><path d="m36.303 39h-16.303v12h32v-14h-12.697zm-11.303 5c-.551 0-1 .448-1 1s.449 1 1 1v2c-1.654 0-3-1.346-3-3s1.346-3 3-3zm10 4c-.537 0-1.034-.153-1.471-.401-.532.839-1.464 1.401-2.529 1.401h-1c-1.654 0-3-1.346-3-3h2c0 .552.449 1 1 1h1c.551 0 1-.448 1-1v-2c0-.552-.449-1-1-1h-1c-.551 0-1 .448-1 1h-2c0-1.654 1.346-3 3-3h1c1.065 0 1.997.562 2.529 1.401.437-.248.934-.401 1.471-.401 1.654 0 3 1.346 3 3s-1.346 3-3 3zm5-9h10v2h-10zm0 4h10v2h-10zm0 4h10v2h-10z"/><path d="m38.092 33-3 2h-14.092c-.551 0-1 .448-1 1v1h15.697l3-2h13.303v-2z"/><path d="m37.279 11 1.334-4h-13.226l1.334 4z"/></svg>