<?xml version="1.0" encoding="iso-8859-1"?>
<!-- Generator: Adobe Illustrator 19.0.0, SVG Export Plug-In . SVG Version: 6.00 Build 0)  -->
<svg version="1.1" id="Capa_1" xmlns="http://www.w3.org/2000/svg" xmlns:xlink="http://www.w3.org/1999/xlink" x="0px" y="0px"
	 viewBox="0 0 512 512" style="enable-background:new 0 0 512 512;" xml:space="preserve">
<g>
	<g>
		<path d="M443.882,5.28C440.842,1.92,436.554,0,432.01,0h-352c-4.512,0-8.832,1.92-11.872,5.28
			c-3.008,3.328-4.512,7.808-4.064,12.32l48,480c0.832,8.192,7.712,14.4,15.936,14.4h256c8.224,0,15.104-6.208,15.904-14.4l48-480
			C448.394,13.088,446.922,8.608,443.882,5.28z M401.29,162.496c-40.672,13.152-93.6,19.232-135.136-14.848
			c-52.064-42.72-115.872-35.36-159.136-22.496L97.706,32h316.608L401.29,162.496z"/>
	</g>
</g>
<g>
</g>
<g>
</g>
<g>
</g>
<g>
</g>
<g>
</g>
<g>
</g>
<g>
</g>
<g>
</g>
<g>
</g>
<g>
</g>
<g>
</g>
<g>
</g>
<g>
</g>
<g>
</g>
<g>
</g>
</svg>
